<svg xmlns="http://www.w3.org/2000/svg" xmlns:xlink="http://www.w3.org/1999/xlink" width="500" zoomAndPan="magnify" viewBox="0 0 375 374.999991" height="500" preserveAspectRatio="xMidYMid meet" version="1.0"><defs><g/><clipPath id="83aff09094"><path d="M 21.347656 94 L 296 94 L 296 220.460938 L 21.347656 220.460938 Z M 21.347656 94 " clip-rule="nonzero"/></clipPath><clipPath id="80945cce3d"><path d="M 76 48.710938 L 368.597656 48.710938 L 368.597656 194 L 76 194 Z M 76 48.710938 " clip-rule="nonzero"/></clipPath></defs><g clip-path="url(#83aff09094)"><path fill="#faf8f8" d="M 146.828125 157.625 C 146.828125 192.269531 118.785156 220.460938 84.3125 220.460938 C 49.839844 220.460938 21.796875 192.269531 21.796875 157.625 C 21.796875 122.976562 49.839844 94.785156 84.3125 94.785156 C 89.75 94.785156 95.023438 95.492188 100.054688 96.804688 L 94.539062 110.894531 C 91.238281 110.167969 87.820312 109.769531 84.304688 109.769531 C 58.097656 109.769531 36.78125 131.234375 36.78125 157.617188 C 36.78125 183.996094 58.097656 205.464844 84.304688 205.464844 C 110.515625 205.464844 131.832031 183.996094 131.832031 157.617188 C 131.832031 140.105469 122.441406 124.773438 108.460938 116.4375 L 113.976562 102.328125 C 133.527344 112.972656 146.828125 133.761719 146.828125 157.625 Z M 209.992188 116 L 204.742188 101.804688 C 186.753906 111.175781 173.839844 129.0625 171.34375 150.132812 L 186.457031 150.132812 C 188.742188 135.5 197.65625 123.058594 209.992188 116 Z M 233.386719 94.792969 C 228.347656 94.792969 223.457031 95.410156 218.765625 96.546875 L 224.011719 110.71875 C 227.046875 110.109375 230.175781 109.785156 233.386719 109.785156 C 259.597656 109.785156 280.914062 131.25 280.914062 157.632812 C 280.914062 184.011719 259.597656 205.476562 233.386719 205.476562 C 209.714844 205.476562 190.03125 187.960938 186.445312 165.125 L 171.328125 165.125 C 175.027344 196.246094 201.433594 220.460938 233.378906 220.460938 C 267.851562 220.460938 295.894531 192.277344 295.894531 157.625 C 295.894531 122.96875 267.859375 94.792969 233.386719 94.792969 Z M 233.386719 94.792969 " fill-opacity="1" fill-rule="nonzero"/></g><path fill="#faf8f8" d="M 218.832031 157.625 C 218.832031 161.765625 215.480469 165.117188 211.339844 165.117188 L 156.265625 165.117188 C 152.125 165.117188 148.773438 161.765625 148.773438 157.625 C 148.773438 153.484375 152.125 150.132812 156.265625 150.132812 L 211.339844 150.132812 C 215.472656 150.132812 218.832031 153.484375 218.832031 157.625 Z M 218.832031 157.625 " fill-opacity="1" fill-rule="nonzero"/><path fill="#faf8f8" d="M 235.988281 164.652344 C 235.125 164.96875 234.25 165.125 233.386719 165.125 C 230.34375 165.125 227.480469 163.25 226.359375 160.230469 L 209.992188 116.007812 L 204.742188 101.8125 L 200.042969 89.121094 C 198.605469 85.238281 200.585938 80.925781 204.46875 79.492188 C 208.351562 78.054688 212.660156 80.035156 214.097656 83.917969 L 218.773438 96.554688 L 224.019531 110.726562 L 240.421875 155.03125 C 241.851562 158.90625 239.871094 163.214844 235.988281 164.652344 Z M 235.988281 164.652344 " fill-opacity="1" fill-rule="nonzero"/><path fill="#faf8f8" d="M 242.875 65.164062 C 242.875 69.304688 239.523438 72.65625 235.382812 72.65625 L 198.832031 72.65625 C 194.695312 72.65625 191.34375 69.304688 191.34375 65.164062 C 191.34375 61.023438 194.695312 57.671875 198.832031 57.671875 L 235.382812 57.671875 C 239.523438 57.664062 242.875 61.023438 242.875 65.164062 Z M 242.875 65.164062 " fill-opacity="1" fill-rule="nonzero"/><g clip-path="url(#80945cce3d)"><path fill="#faf8f8" d="M 185.207031 86.511719 C 185.207031 90.652344 181.855469 94.003906 177.714844 94.003906 L 117.246094 94.003906 L 113.992188 102.328125 L 108.472656 116.4375 L 91.296875 160.347656 C 90.140625 163.304688 87.3125 165.117188 84.3125 165.117188 C 83.40625 165.117188 82.480469 164.945312 81.589844 164.601562 C 77.734375 163.089844 75.835938 158.742188 77.339844 154.890625 L 94.546875 110.902344 L 100.0625 96.8125 L 118.875 48.710938 L 150.269531 48.710938 C 154.410156 48.710938 157.761719 52.066406 157.761719 56.203125 C 157.761719 60.34375 154.410156 63.695312 150.269531 63.695312 L 129.105469 63.695312 L 123.109375 79.011719 L 177.714844 79.011719 C 181.855469 79.019531 185.207031 82.371094 185.207031 86.511719 Z M 346.640625 105.28125 C 346.640625 101.140625 343.289062 97.789062 339.148438 97.789062 L 294.621094 97.789062 C 290.480469 97.789062 287.128906 101.140625 287.128906 105.28125 C 287.128906 109.421875 290.480469 112.773438 294.621094 112.773438 L 339.148438 112.773438 C 343.28125 112.773438 346.640625 109.421875 346.640625 105.28125 Z M 360.648438 123.53125 L 310.125 123.53125 C 305.988281 123.53125 302.636719 126.882812 302.636719 131.023438 C 302.636719 135.164062 305.988281 138.515625 310.125 138.515625 L 360.648438 138.515625 C 364.789062 138.515625 368.140625 135.164062 368.140625 131.023438 C 368.140625 126.882812 364.789062 123.53125 360.648438 123.53125 Z M 345.136719 151.980469 L 313.125 151.980469 C 308.984375 151.980469 305.632812 155.332031 305.632812 159.472656 C 305.632812 163.613281 308.984375 166.964844 313.125 166.964844 L 345.136719 166.964844 C 349.277344 166.964844 352.628906 163.613281 352.628906 159.472656 C 352.628906 155.332031 349.277344 151.980469 345.136719 151.980469 Z M 322.390625 178.539062 L 305.367188 178.539062 C 301.226562 178.539062 297.875 181.890625 297.875 186.03125 C 297.875 190.171875 301.226562 193.523438 305.367188 193.523438 L 322.390625 193.523438 C 326.53125 193.523438 329.882812 190.171875 329.882812 186.03125 C 329.882812 181.890625 326.53125 178.539062 322.390625 178.539062 Z M 322.390625 178.539062 " fill-opacity="1" fill-rule="nonzero"/></g><g fill="#faf8f8" fill-opacity="1"><g transform="translate(10.192087, 301.089223)"><g><path d="M 4.929688 0 L 29.984375 0 C 38.867188 0 48.722656 -3.402344 48.722656 -14.226562 C 48.722656 -18.738281 46.5 -23.113281 41.988281 -25.542969 C 46.292969 -27.414062 47.335938 -31.441406 47.335938 -34.910156 C 47.335938 -44.210938 39.421875 -48.582031 29.773438 -48.582031 L 4.929688 -48.582031 Z M 18.460938 -30.050781 L 18.460938 -37.480469 L 29.566406 -37.480469 C 32.273438 -37.480469 33.800781 -35.8125 33.800781 -33.660156 C 33.800781 -31.511719 32.273438 -30.050781 29.425781 -30.050781 Z M 18.460938 -10.6875 L 18.460938 -19.988281 L 30.050781 -19.988281 C 33.382812 -19.988281 35.117188 -18.046875 35.117188 -15.269531 C 35.117188 -12.492188 33.59375 -10.6875 30.050781 -10.6875 Z M 18.460938 -10.6875 "/></g></g></g><g fill="#faf8f8" fill-opacity="1"><g transform="translate(61.408102, 301.089223)"><g><path d="M 4.929688 0 L 18.601562 0 L 18.601562 -48.582031 L 4.929688 -48.582031 Z M 4.929688 0 "/></g></g></g><g fill="#faf8f8" fill-opacity="1"><g transform="translate(84.934156, 301.089223)"><g><path d="M 4.929688 0 L 18.671875 0 L 18.671875 -16.171875 L 32.550781 0 L 49.484375 0 L 49.484375 -0.832031 L 28.109375 -24.777344 L 47.890625 -47.820312 L 47.890625 -48.582031 L 31.441406 -48.582031 L 18.671875 -32.550781 L 18.671875 -48.582031 L 4.929688 -48.582031 Z M 4.929688 0 "/></g></g></g><g fill="#faf8f8" fill-opacity="1"><g transform="translate(133.651834, 301.089223)"><g><path d="M 4.929688 0 L 43.792969 0 L 43.792969 -11.589844 L 18.460938 -11.589844 L 18.460938 -18.878906 L 41.433594 -18.878906 L 41.433594 -30.050781 L 18.460938 -30.050781 L 18.460938 -37.132812 L 42.824219 -37.132812 L 42.824219 -48.582031 L 4.929688 -48.582031 Z M 4.929688 0 "/></g></g></g><g fill="#faf8f8" fill-opacity="1"><g transform="translate(180.218161, 301.089223)"><g><path d="M 3.191406 0 L 44.140625 0 L 44.140625 -11.660156 L 16.308594 -11.660156 C 16.308594 -17.210938 20.890625 -17.835938 24.152344 -17.835938 C 35.882812 -17.835938 44.488281 -21.863281 44.488281 -33.9375 C 44.488281 -44.210938 35.257812 -49.207031 24.429688 -49.207031 C 13.601562 -49.207031 4.027344 -44.558594 4.027344 -33.175781 L 17.421875 -33.175781 C 17.769531 -36.921875 20.335938 -38.382812 24.429688 -38.382812 C 27.761719 -38.382812 30.953125 -37.0625 30.953125 -33.730469 C 30.953125 -29.773438 26.929688 -28.59375 24.152344 -28.59375 C 14.226562 -28.59375 3.191406 -25.75 3.191406 -11.3125 Z M 3.191406 0 "/></g></g></g><g fill="#faf8f8" fill-opacity="1"><g transform="translate(228.103053, 301.089223)"><g><path d="M 25.820312 -29.773438 L 25.820312 -19.015625 L 38.101562 -19.015625 L 38.101562 -12.910156 C 35.328125 -10.828125 31.371094 -10.339844 28.734375 -10.339844 C 19.015625 -10.339844 15.753906 -17.976562 15.753906 -24.152344 C 15.753906 -33.523438 20.820312 -38.171875 28.734375 -38.171875 C 32.066406 -38.171875 36.367188 -37.199219 39.839844 -33.9375 L 47.890625 -41.78125 C 41.433594 -48.238281 35.535156 -49.695312 28.734375 -49.695312 C 10.550781 -49.695312 2.222656 -36.921875 2.222656 -24.152344 C 2.222656 -11.589844 9.507812 1.179688 28.664062 1.179688 C 38.101562 1.179688 46.363281 -2.152344 49.554688 -8.328125 L 49.554688 -29.773438 Z M 25.820312 -29.773438 "/></g></g></g><g fill="#faf8f8" fill-opacity="1"><g transform="translate(280.568259, 301.089223)"><g><path d="M 29.21875 1.179688 C 45.042969 1.179688 56.148438 -7.980469 56.148438 -24.222656 C 56.148438 -40.324219 45.042969 -49.695312 29.21875 -49.695312 C 13.324219 -49.695312 2.222656 -40.046875 2.222656 -24.222656 C 2.222656 -7.980469 13.324219 1.179688 29.21875 1.179688 Z M 29.21875 -10.550781 C 21.375 -10.550781 15.964844 -16.171875 15.964844 -24.222656 C 15.964844 -32.273438 21.308594 -37.894531 29.21875 -37.894531 C 37.269531 -37.894531 42.40625 -32.550781 42.40625 -24.222656 C 42.40625 -16.242188 37.199219 -10.550781 29.21875 -10.550781 Z M 29.21875 -10.550781 "/></g></g></g><g fill="#faf8f8" fill-opacity="1"><g transform="translate(79.413776, 348.566404)"><g><path d="M 2.648438 0 L 18.195312 0 L 18.195312 -3.308594 L 6.015625 -3.308594 L 6.015625 -8.960938 L 17.625 -8.960938 L 17.625 -12.089844 L 6.015625 -12.089844 L 6.015625 -17.773438 L 18.105469 -17.773438 L 18.105469 -21.050781 L 2.648438 -21.050781 Z M 2.648438 0 "/></g></g></g><g fill="#faf8f8" fill-opacity="1"><g transform="translate(106.99025, 348.566404)"><g><path d="M 2.648438 0 L 6.046875 0 L 6.046875 -14.855469 L 17.984375 0 L 20.542969 0 L 20.542969 -21.050781 L 17.171875 -21.050781 L 17.171875 -6.074219 L 5.234375 -21.050781 L 2.648438 -21.050781 Z M 2.648438 0 "/></g></g></g><g fill="#faf8f8" fill-opacity="1"><g transform="translate(137.874456, 348.566404)"><g><path d="M 7.429688 0 L 10.828125 0 L 10.828125 -18.015625 L 17.714844 -18.015625 L 17.714844 -21.050781 L 0.511719 -21.050781 L 0.511719 -18.015625 L 7.429688 -18.015625 Z M 7.429688 0 "/></g></g></g><g fill="#faf8f8" fill-opacity="1"><g transform="translate(163.797068, 348.566404)"><g><path d="M 2.648438 0 L 18.195312 0 L 18.195312 -3.308594 L 6.015625 -3.308594 L 6.015625 -8.960938 L 17.625 -8.960938 L 17.625 -12.089844 L 6.015625 -12.089844 L 6.015625 -17.773438 L 18.105469 -17.773438 L 18.105469 -21.050781 L 2.648438 -21.050781 Z M 2.648438 0 "/></g></g></g><g fill="#faf8f8" fill-opacity="1"><g transform="translate(191.373539, 348.566404)"><g><path d="M 2.648438 0 L 12.300781 0 C 16.480469 0 20.121094 -1.414062 20.121094 -6.015625 C 20.121094 -7.609375 19.066406 -10.136719 16.542969 -10.855469 C 18.554688 -11.667969 19.457031 -13.234375 19.457031 -15.039062 C 19.457031 -19.246094 16.300781 -21.050781 12.300781 -21.050781 L 2.648438 -21.050781 Z M 5.984375 -12.332031 L 5.984375 -18.015625 L 12.300781 -18.015625 C 14.828125 -18.015625 16.121094 -16.449219 16.121094 -14.976562 C 16.121094 -13.292969 14.855469 -12.332031 12.332031 -12.332031 Z M 5.984375 -3.128906 L 5.984375 -9.324219 L 12.332031 -9.324219 C 14.253906 -9.324219 16.75 -8.300781 16.75 -6.046875 C 16.75 -3.757812 14.136719 -3.128906 12.300781 -3.128906 Z M 5.984375 -3.128906 "/></g></g></g><g fill="#faf8f8" fill-opacity="1"><g transform="translate(220.603876, 348.566404)"><g><path d="M 2.648438 0 L 12.300781 0 C 16.480469 0 20.121094 -1.414062 20.121094 -6.015625 C 20.121094 -7.609375 19.066406 -10.136719 16.542969 -10.855469 C 18.554688 -11.667969 19.457031 -13.234375 19.457031 -15.039062 C 19.457031 -19.246094 16.300781 -21.050781 12.300781 -21.050781 L 2.648438 -21.050781 Z M 5.984375 -12.332031 L 5.984375 -18.015625 L 12.300781 -18.015625 C 14.828125 -18.015625 16.121094 -16.449219 16.121094 -14.976562 C 16.121094 -13.292969 14.855469 -12.332031 12.332031 -12.332031 Z M 5.984375 -3.128906 L 5.984375 -9.324219 L 12.332031 -9.324219 C 14.253906 -9.324219 16.75 -8.300781 16.75 -6.046875 C 16.75 -3.757812 14.136719 -3.128906 12.300781 -3.128906 Z M 5.984375 -3.128906 "/></g></g></g><g fill="#faf8f8" fill-opacity="1"><g transform="translate(249.834213, 348.566404)"><g><path d="M 2.648438 0 L 18.195312 0 L 18.195312 -3.308594 L 6.015625 -3.308594 L 6.015625 -8.960938 L 17.625 -8.960938 L 17.625 -12.089844 L 6.015625 -12.089844 L 6.015625 -17.773438 L 18.105469 -17.773438 L 18.105469 -21.050781 L 2.648438 -21.050781 Z M 2.648438 0 "/></g></g></g></svg>